<?xml version="1.0" encoding="UTF-8"?>
<svg id="Layer_1" data-name="Layer 1" xmlns="http://www.w3.org/2000/svg" viewBox="0 0 527.06 482.82">
  <defs>
    <style>
      .cls-1 {
        fill: #fff;
      }

      .cls-2 {
        fill: #ed202d;
      }
    </style>
  </defs>
  <path class="cls-2" d="M37.56,46.34c.54-4.83,2.67-8.79,7.28-10.73,9.73.26,21.13-3.69,30.65-2.44,4.79.63,4.88,5.06-.85,5.97-8.19,1.3-19.08.72-26.79,2.48-2.34.53-3.48,2.41-3.55,4.71l-.03,403.06c-.13,2.18,1.55,3.01,3.47,3.31,6.36-1.79,12.77-3.95,19.2-5.49,56.09-13.48,119.93-7.39,174.77,8.88,3.69,1.1,18.87,8.05,21.64,6.29,1.89-8.27-3.16-17.97-7.11-25.32-23.83-44.35-84.7-64.48-131.42-71.21-5.98-.86-20.9.24-23.54-5.73l-.7-351.32c-.11-3.4,1.4-6.75,4.55-8.22,1.72-.8,14.18-.61,16.86-.37,46.12,4,93.29,22.25,124.7,57.29,2.32,2.59,15.8,20.73,17.15,20.73,13.83-16.15,30.37-31.76,50.66-39.39,26.37-9.91,46.41-5.8,73.18-4.14,31.34,1.95,63.01,1.24,94.52,1.54.73.14,4.39,2.14,4.88,2.63,4.99,5.04-.04,21.74,3.78,23.99,2.36,1.39,21.02-.2,25.84.43,3.16.42,6.16,2.44,9.27,3.12,1.52,1.5,1.02,30.83.97,35.51-1,85.7-4.36,171.62-6.07,257.34-.71,35.44.72,72.18-1.46,107.36-.36,5.73,1.98,15.99-6.39,16.2-5.18.13-9.41-2.16-13.7-2.88-72.62-12.27-147.32-16.82-221.19-9.93-3.05.28-9.57,2.87-11.14,2.81-2.16-.08-6.92-1.83-9.89-2.06-40.57-3.09-87.35-1.06-128.29.02-30.43.8-62.23,1.71-92.26,6.05-7.75,1.12-16.91,3.97-24.14,5.13-2.94.47-6.53-.24-9.58.07l-2.83-7.89V68.83c2.14-10.53,13.15-8.5,21.41-8.6,1.43-.02,2.84-.79,4.48-.77,2.9.03,7.38,1.2,10.43,1.58.44-.06,1.24-1.81,1.24-1.93,0-3.97-.42-8.98,0-12.76h0ZM282.7,67.47c-2.4,2.38-9.41,8.71-10.61,11.53-.84,1.97-.44,5.56-1.17,7.84l.4,373.39,1.67,1.4c2.17.58,10.93-4.41,13.85-5.39,44.61-15.04,107.04-15.29,154.08-12.5,9.5.56,19.04,2.46,28.53,2.99,3.03.17,12.14,1.32,13.5-1.49l-.2-399.8-1.68-2.07c-20.53-1.12-41.35-.4-61.95-1.09-17.31-.58-34.52-2.86-51.72-3.81-33.7-1.87-60.7,5.23-84.72,29.04l.02-.04Z"/>
  <path class="cls-1" d="M282.7,67.47c24.02-23.81,51.02-30.9,84.72-29.04,17.2.95,34.41,3.24,51.72,3.81,20.6.69,41.42-.02,61.95,1.09l1.68,2.07.2,399.8c-1.36,2.81-10.47,1.66-13.5,1.49-9.49-.53-19.03-2.42-28.53-2.99-47.04-2.78-109.48-2.53-154.08,12.5-2.92.98-11.68,5.98-13.85,5.39l-1.67-1.4-.4-373.39c.73-2.27.33-5.87,1.17-7.84,1.2-2.82,8.21-9.15,10.61-11.53l-.02.04Z"/>
</svg>