<?xml version="1.0" encoding="UTF-8"?>
<svg id="svg3069" xmlns="http://www.w3.org/2000/svg" viewBox="0 0 179.01 40.7">
  <defs>
    <style>
      .cls-1 {
        fill: #fff;
      }
    </style>
  </defs>
  <path class="cls-1" d="M28.23.45v5.1c0,.23-.23.57-.45.79h0l-7.48,7.48-4.76,4.76s-.11.11-.34.11-.23,0-.34-.11l-7.37-7.37s-.34-.34-.34-.79v-5.1s0-.11.11-.11h.23l7.71,7.71,2.15-2.15-4.65-4.65c-.23-.23-.34-.45-.34-.79V.23s0-.11.11-.23h.23l7.6,7.6L27.89,0h.11s.23,0,.23.23v.23Z"/>
  <path class="cls-1" d="M18.71,25.62c0,.11,0,.23-.11.34l-7.37,7.37s-.34.34-.79.34h-5.1s-.11,0-.11-.11v-.23l7.71-7.71-2.15-2.15-4.65,4.65h0c-.23.23-.45.34-.79.34H.23s-.11,0-.23-.11v-.23l7.6-7.6L0,12.92v-.11s0-.23.23-.23h5.1c.23,0,.57.23.79.45h0l7.48,7.48h0l4.76,4.76s.11.11.11.34h.23Z"/>
  <path class="cls-1" d="M33.44,35.37s0,.11-.11.11h-.23l-7.71-7.71-2.15,2.15h0l4.65,4.65h0c.23.23.34.45.34.79v5.1s0,.11-.11.23h-.23l-7.6-7.6-7.6,7.6h-.11s-.23,0-.23-.23v-5.1c0-.34.23-.57.45-.79h0l7.48-7.48,4.76-4.76s.11-.11.34-.11h0c.11,0,.23,0,.34.11l7.37,7.37s.34.34.34.79v5.1-.23Z"/>
  <path class="cls-1" d="M40.59,28.23s0,.23-.23.23h-5.1c-.23,0-.57-.23-.79-.45h0l-7.48-7.48-4.76-4.76s-.11-.11-.11-.34,0-.23.11-.34l7.37-7.37s.34-.34.79-.34h5.1s.11,0,.11.11v.23l-7.71,7.71,2.15,2.15,4.65-4.65h0c.23-.23.45-.34.79-.34h5.1s.11,0,.23.11v.23l-7.6,7.6,7.6,7.6v.11h-.23Z"/>
  <g>
    <path id="path3129" class="cls-1" d="M47.96,12.36v15.99h3.51v-6.12h7.6v-3.17h-7.6v-3.4h8.62v-3.17h-12.13"/>
    <path id="path3131" class="cls-1" d="M69.95,21.65l-2.15-5.22-2.15,5.22h4.31ZM66.32,12.24h3.29l6.8,16.1h-3.63l-1.47-3.63h-6.69l-1.47,3.63h-3.63l6.8-16.1"/>
    <path id="path3133" class="cls-1" d="M78,12.36h3.29l7.48,9.86v-9.86h3.51v15.99h-2.95l-7.71-10.09v10.09h-3.51v-15.99"/>
    <path id="path3135" class="cls-1" d="M94.55,25.96l2.04-2.49c1.47,1.13,2.95,1.93,4.76,1.93s2.27-.57,2.27-1.47h0c0-.91-.57-1.36-3.17-2.04-3.17-.79-5.33-1.7-5.33-4.88h0c0-2.95,2.38-4.88,5.56-4.88s4.31.68,5.9,2.04l-1.81,2.61c-1.36-1.02-2.83-1.59-4.19-1.59s-2.04.57-2.04,1.36h0c0,1.13.68,1.47,3.4,2.15,3.29.79,5.1,2.04,5.1,4.76h0c0,3.17-2.38,4.99-5.9,4.99s-4.88-.79-6.8-2.61"/>
    <path id="path3137" class="cls-1" d="M109.97,12.36h3.51v6.35h6.46v-6.35h3.51v15.99h-3.51v-6.35h-6.46v6.35h-3.51v-15.99"/>
    <path id="path3139" class="cls-1" d="M135.93,21.65l-2.15-5.22-2.15,5.22h4.31ZM132.19,12.24h3.29l6.8,16.1h-3.63l-1.47-3.63h-6.69l-1.47,3.63h-3.63l6.8-16.1"/>
    <path id="path3141" class="cls-1" d="M140.69,12.36h3.74l3.29,10.77,3.63-10.88h3.06l3.63,10.88,3.29-10.77h3.63l-5.44,16.1h-3.06l-3.63-10.43-3.63,10.43h-3.06l-5.44-16.1"/>
    <path id="path3143" class="cls-1" d="M166.88,12.36h12.02v3.17h-8.5v3.29h7.48v3.17h-7.48v3.4h8.62v3.17h-12.13v-15.99"/>
  </g>
</svg>