<?xml version="1.0" encoding="UTF-8"?>
<svg id="svg3069" xmlns="http://www.w3.org/2000/svg" viewBox="0 0 107.01 110.03">
  <defs>
    <style>
      .cls-1 {
        fill: #e32124;
      }

      .cls-2 {
        fill: #b3212c;
      }
    </style>
  </defs>
  <g id="g3077">
    <g id="g3372">
      <path id="path3089" class="cls-1" d="M51.77,20.95L31.05.17c-.19-.19-.39-.18-.51-.15-.23.05-.39.28-.4.47,0,0,0,13.81,0,13.84,0,.77.32,1.51.89,2.02h0s12.66,12.66,12.66,12.66l8.08-8.07"/>
      <path id="path3091" class="cls-2" d="M16.94,14.12c-.16-.16-.34-.18-.49-.15-.22.04-.38.25-.4.45l.03,13.79c-.11,1.27.85,2.16.85,2.16l20.04,20.01c.1.09.36.32.8.32v-15.76L16.94,14.12"/>
      <path id="path3093" class="cls-1" d="M51.77,37.19l-8.07-8.16-5.93,5.92v15.76c.56,0,.88-.41.92-.45l13.08-13.07"/>
      <path id="path3095" class="cls-1" d="M73.41.52C73.41.16,73.11,0,72.89,0c-.12,0-.26.05-.4.18l-20.72,20.77v16.24s20.43-20.41,20.43-20.41l.04-.04c.68-.58,1.17-1.43,1.17-2.2V.52"/>
      <path id="path3097" class="cls-2" d="M51.77,20.95l-8.08,8.07,8.07,8.16v-16.24"/>
      <path id="path3099" class="cls-1" d="M17.91,55.05L-2.87,75.77c-.19.19-.18.39-.15.51.05.24.28.39.48.4h13.84c.77,0,1.51-.32,2.03-.89h0s12.66-12.66,12.66-12.66l-8.08-8.08"/>
      <path id="path3101" class="cls-2" d="M11.08,89.88c-.16.15-.18.34-.15.49.04.22.25.38.45.4l13.79-.03c1.27.11,2.16-.85,2.16-.85l20.01-20.04c.09-.1.32-.36.32-.8h-15.76l-20.83,20.82"/>
      <path id="path3103" class="cls-1" d="M34.15,55.05l-8.16,8.07,5.92,5.93h15.76c0-.56-.41-.88-.45-.92l-13.07-13.08"/>
      <path id="path3105" class="cls-1" d="M-2.53,33.41c-.36,0-.52.3-.52.52,0,.12.05.26.18.39l20.77,20.72h16.24s-20.41-20.43-20.41-20.43l-.04-.04c-.58-.68-1.43-1.17-2.2-1.17H-2.53"/>
      <path id="path3107" class="cls-2" d="M17.91,55.05l8.08,8.08,8.16-8.07h-16.24"/>
      <path id="path3109" class="cls-1" d="M51.93,89.08l20.72,20.78c.19.19.38.18.51.15.23-.05.38-.28.39-.48,0,0,0-13.81,0-13.84,0-.77-.33-1.51-.89-2.03h0s-12.66-12.66-12.66-12.66l-8.08,8.07"/>
      <path id="path3111" class="cls-2" d="M86.76,95.91c.16.16.34.18.49.15.22-.05.38-.25.4-.45l-.03-13.79c.11-1.27-.85-2.16-.85-2.16l-20.03-20.01c-.1-.09-.36-.32-.8-.32v15.75l20.82,20.83"/>
      <path id="path3113" class="cls-1" d="M51.94,72.84l8.07,8.16,5.93-5.92v-15.75c-.56,0-.88.41-.93.44l-13.08,13.07"/>
      <path id="path3115" class="cls-1" d="M30.3,109.51c0,.36.3.52.52.52.12,0,.26-.05.39-.18l20.72-20.77v-16.24s-20.43,20.42-20.43,20.42l-.04.04c-.68.58-1.17,1.43-1.17,2.2v14.02"/>
      <path id="path3117" class="cls-2" d="M51.93,89.08l8.08-8.07-8.07-8.16v16.24"/>
      <path id="path3119" class="cls-1" d="M86.06,54.97l20.78-20.72c.19-.19.18-.39.15-.51-.05-.23-.28-.39-.47-.4,0,0-13.81,0-13.84,0-.77,0-1.5.32-2.02.89h0s-12.66,12.66-12.66,12.66l8.07,8.07"/>
      <path id="path3121" class="cls-2" d="M92.89,20.15c.16-.16.18-.34.15-.49-.05-.21-.25-.38-.45-.4l-13.79.03c-1.27-.11-2.16.85-2.16.85l-20.01,20.04c-.08.1-.32.37-.32.8h15.75l20.83-20.82"/>
      <path id="path3123" class="cls-1" d="M69.82,54.97l8.16-8.07-5.92-5.93h-15.76c0,.56.41.88.45.92l13.07,13.08"/>
      <path id="path3125" class="cls-1" d="M106.5,76.61c.36,0,.52-.3.52-.53,0-.12-.04-.26-.18-.39l-20.77-20.72h-16.24s20.42,20.43,20.42,20.43l.04.04c.58.68,1.43,1.17,2.19,1.17h14.02"/>
      <path id="path3127" class="cls-2" d="M86.06,54.97l-8.07-8.07-8.17,8.07h16.24"/>
    </g>
  </g>
</svg>