<?xml version="1.0" encoding="UTF-8"?>
<svg id="Layer_1" data-name="Layer 1" xmlns="http://www.w3.org/2000/svg" viewBox="0 0 530.68 340.83">
  <defs>
    <style>
      .cls-1 {
        fill: #fff;
      }

      .cls-2 {
        fill: #b3272d;
      }
    </style>
  </defs>
  <path d="M467.31.14l.09,2.09c.46.46,3.52-.27,4.77.17,1.72.61.15,4.13,4.24,2.92v3.03s3.02-.01,3.02-.01l-.06,6.38,2.36.83v263.01s-2.36.83-2.36.83l.06,7.88-3,.02c.8,4.07-2.03,3.07-2.87,3.96-.35.37,0,1.55-.29,1.88-.55.59-5.36.73-6.59,1.04l-.48,2.2H65.99s-.46-2.23-.46-2.23l-8.97-.87-.03-2.99-2.99-.02c-.42-2.85.25-5.28-3.1-5.66l.04-275.04,3.04-.43v-3.78s2.95-.09,2.95-.09c-.47-4.56,6.45-.51,6.5-5.24l404.33.14ZM467.3,6.18H62.62s-.1,2.09-.1,2.09c-5.06-.81-1.08,3.42-6.04,4.3l.05,271.67h3.03s.03,2.98.03,2.98l6.34.82h398.08c1.12-.07,5.84-.52,6.25-.96.49-.53-.46-2.49,2.8-2.79l.36-272.5-3.04-.43v-3.03s-2.97-.07-2.97-.07l-.1-2.09Z"/>
  <path d="M0,306.1l5.62-.79h213.39s5.59.83,5.59.83l.03,8.26h3.03s-.01,3.02-.01,3.02l2.98.07.45,2.24h69.99c.98-2.6,1.01-3.38,4.2-3.09l-.03-7.81c3.46-.16,2.81-3.47,3.07-3.47h222.37v23.37h-3.02s.01,3.77.01,3.77h-3.03s.01,3.02.01,3.02l-2.97.08c.65,3.49-4.32,2.34-6.77,3.04l-.48,2.2H17.75s-.82-2.37-.82-2.37c-1.52.16-7.68-.11-8.48-.87-.36-.34-.15-1.56-.55-2.07-.69-.86-2.04-.53-2.46-.99-.7-.75,1.04-2.82-3.17-2.06-.1-1.53-.02-4.21-.78-5.48-.49-.81-1.49-.46-1.49-.54v-20.35ZM5.28,311.37v14.32h3.02s-.01,3.77-.01,3.77l2.97.09c-.67,3.3,3.87,2.47,6.43,2.96h495.31s5.52-.94,5.52-.94l.16-2.02,2.97-.08v-3.03s3.01,0,3.01,0v-15.83h-208.41s-4.88.79-4.88.79c-.67.7,1.3,9.34-2.96,8.32.89,5.13-3.84,1.02-3.96,5.86l-76.38.16-.52-2.17-5.89-.94-.03-6h-3.03s-.32-5.32-.32-5.32l-2.27-.74H11.65s-6.37.79-6.37.79Z"/>
  <path class="cls-1" d="M467.3,6.18l.1,2.09,2.98.07v3.03s3.02.43,3.02.43l-.36,272.5c-3.26.3-2.31,2.26-2.8,2.79-.41.44-5.13.89-6.25.96H65.92s-6.34-.82-6.34-.82l-.03-2.99h-3.03s-.05-271.66-.05-271.66c4.96-.88.98-5.11,6.04-4.3l.1-2.09h404.69ZM455.3,27.19H77.64v235.94h377.66V27.19Z"/>
  <path class="cls-1" d="M5.28,311.37l6.37-.79h204.35s2.27.74,2.27.74l.32,5.33h3.03s.03,5.99.03,5.99l5.89.94.52,2.17,76.38-.16c.12-4.84,4.85-.74,3.96-5.86,4.25,1.02,2.28-7.62,2.96-8.32l4.88-.78h208.41s0,15.82,0,15.82h-3.02s.01,3.02.01,3.02l-2.97.08-.16,2.02-5.52.94H17.68c-2.56-.49-7.1.34-6.43-2.95l-2.97-.09v-3.78s-3.01,0-3.01,0v-14.32Z"/>
  <path class="cls-2" d="M455.3,27.19v235.94H77.64V27.19h377.66ZM323.34,150.15l-5.99-.08v3.01s3.03,0,3.03,0v6.04s3.02,0,3.02,0v6.04s3.02,0,3.02,0c-1.6,5.38,2.37,4.19,2.92,5.74.46,1.3-.09,3.37.08,4.82h3.03s-.01,6.03-.01,6.03h3.03s-.06,3.35-.06,3.35c3.49.36,2.84,3.5,3.07,6.45h3.02s-.01,6.04-.01,6.04h3.03s-.06,4.82-.06,4.82c4.03.96,3.11,2.93,3.06,6.49h3.03s-.01,6.03-.01,6.03h3.03s0,3.76,0,3.76l2.65-.73.35-5.3h3.03s-.01-9.05-.01-9.05h3.03s-.06-6.36-.06-6.36c3.02-.38,1.83-1.62,3.53-3.4l5.08.69.54,2.2,2.97.08.03,2.99,5.97.82.03,2.99c4.21-.81,2.49,1.3,3.18,2.05.42.46,1.78.13,2.46.99.4.51.2,1.73.55,2.07,1.13,1.07,5.72-.62,5.82,3.61l6.04-.47v-5.21c-3.9.97-3.22-2.5-4.25-3.07s-4.55-.57-4.72-.76l-.02-2.99-2.97-.08-.1-2.1-2.97-.08-.03-2.99-5.97-.82-.02-2.99h-3.03s.01-3.01.01-3.01h-3.03s0-3.01,0-3.01h3.03s-.01-3.02-.01-3.02c4.2.81,2.49-1.3,3.18-2.05.42-.46,1.78-.13,2.46-.99.4-.51.2-1.73.55-2.07.67-.64,5.18-.48,5.74-1.09.29-.32-.07-1.5.29-1.87.46-.48,1.81-.15,2.46-.99.94-1.21-.67-2.99,3.41-2.24v-2.25s-8.64-.71-8.64-.71l-.82-2.37-11.24-.65-.82-2.37-11.24-.65-.82-2.37-11.24-.65-.82-2.37-11.24-.65-.82-2.37-11.24-.65-.46-2.23Z"/>
  <path class="cls-1" d="M323.34,150.15l.46,2.23,11.24.65.82,2.37,11.24.65.82,2.37,11.24.65.82,2.37,11.24.65.82,2.37,11.24.65.82,2.37,8.64.71v2.25c-4.07-.74-2.46,1.03-3.4,2.24-.65.84-2,.51-2.46.99-.36.37,0,1.55-.29,1.87-.57.62-5.07.45-5.74,1.09-.36.34-.15,1.56-.55,2.07-.69.86-2.04.53-2.46.99-.69.74,1.02,2.86-3.18,2.05v3.03s-3.02,0-3.02,0v3.01s3.03,0,3.03,0v3.03s3.02-.01,3.02-.01l.02,2.99,5.97.82.03,2.99,2.97.08.1,2.1,2.97.08.02,2.99c.18.19,3.74.22,4.72.76s.35,4.03,4.26,3.07v5.21s-6.06.47-6.06.47c-.1-4.23-4.68-2.54-5.82-3.61-.35-.33-.15-1.56-.55-2.07-.69-.86-2.04-.53-2.46-.99-.69-.75,1.03-2.86-3.18-2.05l-.03-2.99-5.97-.82-.03-2.99-2.97-.08-.54-2.2-5.08-.69c-1.71,1.77-.52,3.02-3.53,3.4l.06,6.37h-3.03s.01,9.05.01,9.05h-3.03s-.35,5.29-.35,5.29l-2.65.73v-3.77s-3.03,0-3.03,0v-6.04s-3.02,0-3.02,0c.05-3.56.97-5.53-3.06-6.49l.06-4.82h-3.03s.01-6.03.01-6.03h-3.02c-.23-2.95.42-6.08-3.07-6.45l.06-3.36h-3.03s.01-6.03.01-6.03h-3.03c-.17-1.44.38-3.51-.08-4.81-.55-1.55-4.52-.36-2.92-5.74h-3.03s.01-6.03.01-6.03h-3.03s.01-6.03.01-6.03h-3.03s0-3.01,0-3.01l5.99.08Z"/>
</svg>