<?xml version="1.0" encoding="UTF-8"?>
<svg id="Layer_1" data-name="Layer 1" xmlns="http://www.w3.org/2000/svg" viewBox="0 0 46.17 30.98">
  <defs>
    <style>
      .cls-1 {
        fill: #fff;
      }
    </style>
  </defs>
  <rect class="cls-1" x="6.15" width="39.84" height="4.6"/>
  <path class="cls-1" d="M5.96,0h0S5.88,0,5.84,0C4.57,0,3.54,1.03,3.54,2.3s1.03,2.3,2.3,2.3c.04,0,.08,0,.12-.01h0s40.2.01,40.2.01V0H5.96Z"/>
  <path class="cls-1" d="M2.42,26.37h0s-.08,0-.12,0c-1.27,0-2.3,1.03-2.3,2.3s1.03,2.3,2.3,2.3c.04,0,.08,0,.12-.01h0s43.74.01,43.74.01v-4.6H2.42Z"/>
  <path class="cls-1" d="M46.17,12.48h-21.71s-.08,0-.12,0c-1.27,0-2.3,1.03-2.3,2.3s1.03,2.3,2.3,2.3c.04,0,.08,0,.12-.01h0s21.71.01,21.71.01"/>
</svg>