<?xml version="1.0" encoding="UTF-8"?>
<svg id="Layer_1" data-name="Layer 1" xmlns="http://www.w3.org/2000/svg" viewBox="0 0 538.25 485.72">
  <defs>
    <style>
      .cls-1 {
        fill: #fff;
      }

      .cls-2 {
        fill: #b3272d;
      }
    </style>
  </defs>
  <path class="cls-2" d="M374.99,316.44c-.93-4.21.73-8.19,1.22-12.24,1.91-15.61,4.34-40.67,20.97-47.68,6.56-2.76,13.16-1.83,19.77-3.34,6.1-1.39,10.63-4.89,15.77-8.1,2.28-.22,6.87,3.58,9.27,4.7,8.04,3.78,17.75,4.3,26.19,1.38,4.31-1.49,7.79-4.64,12.09-6.1,4.9,2.61,9.78,6.57,15.24,7.95,7.4,1.88,13.73.42,21.26,3.96,10.09,4.75,13.94,14.43,16.68,24.65,1.34,4.97,6.32,31.95,4.34,34.94-3.6,1.22-7.25,2.75-10.89,3.82-45.46,13.3-94.69,13.38-140.1.01-3.99-1.18-7.88-2.61-11.8-3.96Z"/>
  <path d="M246.51,392.3c2.16-.33,6.58,3.7,8.83,4.91,8.8,4.73,17.86,5.36,27.27,1.81,4.5-1.7,7.82-5.29,12.5-6.51,4.4,2.44,7.53,5.84,12.55,7.71,6.79,2.53,13.27,1.38,20.31,3.5,13.51,4.07,19.27,14.67,22.92,27.52,1.57,5.54,6.88,35.86,4.75,39.41-3.76,1.96-8.2,3.32-12.26,4.55-46.34,14.03-98.13,13.96-144.46.14-4.18-1.25-13.66-2.81-13.74-7.84-.09-5.93,1.76-17.49,2.86-23.65,2.86-16.1,7.51-34.06,24.66-39.79,9.55-3.19,17.18-.67,26.53-6.4,1.89-1.16,5.65-5.12,7.29-5.37ZM349.59,466.37c-1.73-15.74-3.33-48.34-20.44-55.41-7.02-2.9-15.52-1.69-23.06-4.26-4.35-1.48-7.86-4.56-12.11-6.18-10.39,5.86-20.67,9.15-32.73,6.18-4.04-1-12.09-6.6-14.87-6.12-1.32.23-4.54,3.21-6.43,4.13-8.42,4.08-13.01,3.07-21.45,4.47-23.36,3.87-23.77,37.39-26.51,55.54l.48,1.8c50.76,16.96,106.4,16.93,157.11-.15Z"/>
  <path d="M60.18,241.01c3.35-.98,7.14,3.01,9.98,4.44,7.61,3.83,16.14,5.25,24.53,2.79,4.19-1.23,12.48-7.91,15.73-7.36,1.17.2,5.42,4.25,7.31,5.35,13.9,8.1,29.15.24,40.56,16.88,7.02,10.23,11.01,32.26,12.05,44.69.21,2.55.88,9.52-.66,11.24-.84.94-8.8,3.41-10.71,4-46.41,14.32-99.89,14.69-146.38.31-1.93-.6-10.99-3.45-11.77-4.34-1.18-1.35-.77-5.69-.69-7.71.52-12.71,5.31-39.2,13-49.35,11.23-14.81,27.1-8.05,40.6-16.14,1.67-1,5.27-4.45,6.45-4.8ZM163.92,314.32c.97-1.58-2.76-24.53-3.57-28.06-2.6-11.4-6.56-23.5-18.53-27.7-5.98-2.1-11.31-1.13-17.18-2.43-5.31-1.18-10.98-4.73-15.61-7.55-4.66,1.26-8.22,4.56-12.95,5.96-10.29,3.03-18.53,1.7-28.01-2.77-2.22-1.05-4.06-3.52-6.58-3.18-1.42.19-5.97,3.76-7.97,4.71-10.67,5.07-21.94,1.8-31.19,8.73-12.51,9.38-13.51,36.48-15.83,50.71.12,2.46,5.42,3.64,7.5,4.3,36.12,11.39,79.45,13.25,116.59,6.32,3.96-.74,32.41-7.51,33.34-9.04Z"/>
  <path d="M199.3,106.62c1.83-2.23,8.86-6.48,11.68-7.58,10.55-4.11,18.41-1.05,29.36-7.77,2.1-1.29,4.78-4.57,6.71-4.57,1.43,0,9.93,5.85,12.77,6.91,7.16,2.68,14.92,2.68,22.08,0,4.53-1.69,8.36-5.13,12.71-6.85,3.67,1.57,6.19,4.5,9.87,6.32,10.67,5.28,20.91,1.93,31.41,8.52,11.1,6.97,15.62,24.59,17.81,36.83.86,4.79,3.25,21.88,2.13,25.62-.65,2.16-5.82,3.3-7.9,4.01-39.56,13.51-88.6,15.44-129.43,6.81-4.93-1.04-29.72-7.42-32.06-9.96-.7-.76-1.26-1.72-1.29-2.79-.16-5.47,1.74-18.01,2.76-23.8,1.48-8.36,6.07-25.21,11.39-31.69ZM204.28,111.57c-9.3,11.68-9.87,32.77-12.28,47.01-.13,2.33,1.52,2.47,3.19,3.17,5.96,2.5,18.14,5.42,24.71,6.81,38.54,8.12,83.14,6.56,120.81-4.94,1.68-.51,8.47-2.58,8.88-3.75-2.03-16.61-3.25-48.11-21.78-55.1-6.49-2.45-12.71-1.29-19.3-3.11-5.24-1.45-9.36-4.28-13.92-7.01-5.18,1.79-9.4,5.22-14.93,6.52-12.19,2.85-22.03-.76-32.5-6.54-4.21,2.56-8.14,5.18-12.92,6.66-10.57,3.27-21.78.03-29.96,10.3Z"/>
  <path d="M80.53,154.22c21.39-2.58,38.36,12.74,40.08,33.78,1.13,13.88-10.44,38.11-22.18,45.75-25.65,16.7-46.35-20.86-47.84-42.26-1.21-17.33,12.5-35.17,29.95-37.27ZM104.21,167.63c-17.75-15.6-45.01-4.17-46.66,18.94-1.91,26.86,25.8,66,47.95,29.74,8.93-14.62,13.09-36.05-1.29-48.68Z"/>
  <path d="M451.8,154.22c27.7-3.34,44.38,21.05,38.36,46.76-4.59,19.63-23.39,47.41-46.14,32.77-27.25-17.54-31.89-74.76,7.78-79.54ZM477.46,169.84c-16.95-18.67-46.81-7.7-48.65,16.73-1.76,23.36,22.34,63.72,45.15,33.94,10.72-13.99,16.46-36.39,3.5-50.67Z"/>
  <path d="M268.27.12c18.56-1.6,35.8,13.13,37.26,31.68,1.9,24.1-21.65,68.2-49.36,46.56C229.7,57.67,227.37,3.64,268.27.12ZM250.5,15.62c-12.78,14.09-7.67,35.1,2.22,49.37,19.2,27.73,40.24,3.11,45.37-19.65,7.16-31.79-27.25-52.15-47.59-29.72Z"/>
  <path d="M264.75,306.21c43.45-5.87,50.77,44.4,26.77,72.3-29.45,34.24-62.46-19.05-53.71-48.11,3.34-11.1,15.19-22.61,26.94-24.19ZM291.83,321.85c-14.8-16.71-41.4-10.53-47.72,10.65-7.15,23.95,20.65,72.74,44.93,38.63,9.99-14.03,15.32-35.13,2.79-49.28Z"/>
  <path d="M86.93,350.91c17.55,34.2,46.41,61.38,79.27,80.85.85,1.07-1.65,5.31-3.2,5.27-34.3-19.41-63.76-48.41-82.01-83.39l5.94-2.73Z"/>
  <path d="M191.31,61.46c-28.95,11.84-56.04,29.94-76.95,53.2-2.19,2.44-11.22,14.51-12.68,15.24-1.34.67-3.45-1.64-4.57-2.49l.03-2.08c18.55-24.22,41.73-44.33,68.54-58.99,3.45-1.89,19.93-10.44,22.58-10.37,1.93.05,2.78,3.83,3.05,5.49Z"/>
  <path d="M408.23,94.07c3.01,2.69,31.46,30.89,29.71,33.32l-3.99,2.74-1.62-.24c-19.17-25.89-44.17-46.39-72.83-61-2.67-1.36-14.36-5.93-15.45-6.97-1.78-1.7.33-4.1.79-5.91,22.95,7.64,45.33,21.94,63.38,38.06Z"/>
  <path d="M367.25,436.97c-.07-2-2.99-3.8-1.85-5.57,31.76-17.48,56.45-43.09,75.78-73.45,3-4.72,1.95-7.59,8.37-2.2-15.03,27.71-38,52.67-63.93,70.63-2.34,1.62-16.9,11.67-18.38,10.59Z"/>
  <path class="cls-1" d="M349.59,466.37c-50.71,17.08-106.35,17.11-157.11.15l-.48-1.8c2.74-18.15,3.15-51.67,26.51-55.54,8.44-1.4,13.03-.39,21.45-4.47,1.89-.92,5.1-3.9,6.43-4.13,2.77-.48,10.82,5.13,14.87,6.12,12.06,2.97,22.34-.33,32.73-6.18,4.25,1.62,7.76,4.7,12.11,6.18,7.54,2.56,16.04,1.36,23.06,4.26,17.11,7.06,18.71,39.66,20.44,55.41Z"/>
  <path class="cls-1" d="M163.92,314.32c-.93,1.52-29.38,8.3-33.34,9.04-37.14,6.93-80.47,5.07-116.59-6.32-2.08-.66-7.38-1.84-7.5-4.3,2.32-14.24,3.32-41.33,15.83-50.71,9.25-6.93,20.53-3.67,31.19-8.73,2-.95,6.54-4.52,7.97-4.71,2.52-.34,4.37,2.13,6.58,3.18,9.48,4.48,17.73,5.8,28.01,2.77,4.73-1.4,8.29-4.7,12.95-5.96,4.63,2.82,10.3,6.37,15.61,7.55,5.87,1.3,11.2.34,17.18,2.43,11.97,4.2,15.93,16.3,18.53,27.7.81,3.54,4.53,26.48,3.57,28.06Z"/>
  <path class="cls-1" d="M204.28,111.57c8.18-10.27,19.39-7.03,29.96-10.3,4.78-1.48,8.71-4.09,12.92-6.66,10.47,5.79,20.31,9.39,32.5,6.54,5.53-1.29,9.75-4.72,14.93-6.52,4.57,2.73,8.68,5.56,13.92,7.01,6.6,1.83,12.81.66,19.3,3.11,18.53,6.99,19.74,38.49,21.78,55.1-.41,1.17-7.2,3.24-8.88,3.75-37.67,11.5-82.27,13.06-120.81,4.94-6.58-1.39-18.75-4.31-24.71-6.81-1.67-.7-3.32-.84-3.19-3.17,2.41-14.24,2.98-35.33,12.28-47.01Z"/>
  <path class="cls-1" d="M104.21,167.63c14.37,12.63,10.21,34.06,1.29,48.68-22.14,36.27-49.86-2.88-47.95-29.74,1.65-23.12,28.91-34.54,46.66-18.94Z"/>
  <path class="cls-1" d="M477.46,169.84c12.96,14.28,7.22,36.67-3.5,50.67-22.81,29.77-46.91-10.58-45.15-33.94,1.84-24.43,31.7-35.4,48.65-16.73Z"/>
  <path class="cls-1" d="M250.5,15.62c20.34-22.43,54.75-2.07,47.59,29.72-5.13,22.76-26.17,47.38-45.37,19.65-9.89-14.28-15-35.28-2.22-49.37Z"/>
  <path class="cls-1" d="M291.83,321.85c12.53,14.14,7.2,35.24-2.79,49.28-24.29,34.11-52.08-14.67-44.93-38.63,6.32-21.18,32.93-27.35,47.72-10.65Z"/>
</svg>